HIERARCHY
ROOT Hips
{
  OFFSET 0.0000 88.1582 0.0000
  CHANNELS 6 Xposition Yposition Zposition Yrotation Xrotation Zrotation
  JOINT Spine
  {
    OFFSET 0.0000 12.4674 0.0000
    CHANNELS 3 Yrotation Xrotation Zrotation
    JOINT Spine1
    {
      OFFSET 0.0000 12.2380 0.0000
      CHANNELS 3 Yrotation Xrotation Zrotation
      JOINT Spine2
      {
        OFFSET 0.0000 11.5142 0.0000
        CHANNELS 3 Yrotation Xrotation Zrotation
        JOINT LeftShoulder
        {
          OFFSET 6.6026 9.6620 0.0000
          CHANNELS 3 Yrotation Xrotation Zrotation
          JOINT LeftArm
          {
            OFFSET 0.0000 12.6234 0.0000
            CHANNELS 3 Yrotation Xrotation Zrotation
            JOINT LeftForeArm
            {
              OFFSET -0.0001 24.4780 0.0000
              CHANNELS 3 Yrotation Xrotation Zrotation
              JOINT LeftHand
              {
                OFFSET 0.0000 26.9540 0.0000
                CHANNELS 3 Yrotation Xrotation Zrotation
                JOINT LeftHandIndex1
                {
                  OFFSET -2.4222 7.6359 0.0974
                  CHANNELS 3 Yrotation Xrotation Zrotation
                  JOINT LeftHandIndex2
                  {
                    OFFSET 0.0000 4.3320 0.0000
                    CHANNELS 3 Yrotation Xrotation Zrotation
                    JOINT LeftHandIndex3
                    {
                      OFFSET 0.0000 2.6652 0.0000
                      CHANNELS 3 Yrotation Xrotation Zrotation
                      End Site
                      {
                        OFFSET 0.0000 1.3566 0.0000
                      }
                    }
                  }
                }
                JOINT LeftHandMiddle1
                {
                  OFFSET -0.5154 7.6951 0.0974
                  CHANNELS 3 Yrotation Xrotation Zrotation
                  JOINT LeftHandMiddle2
                  {
                    OFFSET 0.0000 4.4473 0.0000
                    CHANNELS 3 Yrotation Xrotation Zrotation
                    JOINT LeftHandMiddle3
                    {
                      OFFSET 0.0000 2.9333 0.0000
                      CHANNELS 3 Yrotation Xrotation Zrotation
                      End Site
                      {
                        OFFSET 0.0000 1.4991 0.0000
                      }
                    }
                  }
                }
                JOINT LeftHandPinky1
                {
                  OFFSET 2.9666 6.6373 0.0975
                  CHANNELS 3 Yrotation Xrotation Zrotation
                  JOINT LeftHandPinky2
                  {
                    OFFSET 0.0000 3.3612 0.0000
                    CHANNELS 3 Yrotation Xrotation Zrotation
                    JOINT LeftHandPinky3
                    {
                      OFFSET 0.0000 2.1128 0.0000
                      CHANNELS 3 Yrotation Xrotation Zrotation
                      End Site
                      {
                        OFFSET 0.0000 1.1205 0.0000
                      }
                    }
                  }
                }
                JOINT LeftHandRing1
                {
                  OFFSET 1.3623 7.3832 0.0975
                  CHANNELS 3 Yrotation Xrotation Zrotation
                  JOINT LeftHandRing2
                  {
                    OFFSET 0.0000 4.1539 0.0000
                    CHANNELS 3 Yrotation Xrotation Zrotation
                    JOINT LeftHandRing3
                    {
                      OFFSET 0.0000 2.6790 0.0000
                      CHANNELS 3 Yrotation Xrotation Zrotation
                      End Site
                      {
                        OFFSET 0.0000 1.3500 0.0000
                      }
                    }
                  }
                }
                JOINT LeftHandThumb1
                {
                  OFFSET -2.6352 1.9662 0.0890
                  CHANNELS 3 Yrotation Xrotation Zrotation
                  JOINT LeftHandThumb2
                  {
                    OFFSET 0.0000 3.7470 0.0000
                    CHANNELS 3 Yrotation Xrotation Zrotation
                    JOINT LeftHandThumb3
                    {
                      OFFSET 0.0000 2.8440 0.0000
                      CHANNELS 3 Yrotation Xrotation Zrotation
                      End Site
                      {
                        OFFSET 0.0000 1.7295 0.0000
                      }
                    }
                  }
                }
              }
            }
          }
        }
        JOINT Neck
        {
          OFFSET 0.0000 16.9498 0.0000
          CHANNELS 3 Yrotation Xrotation Zrotation
          JOINT Head
          {
            OFFSET 0.0000 10.3509 0.0000
            CHANNELS 3 Yrotation Xrotation Zrotation
            End Site
            {
              OFFSET 0.0000 8.0220 0.0000
            }
          }
        }
        JOINT RightShoulder
        {
          OFFSET -6.6026 9.6620 0.0000
          CHANNELS 3 Yrotation Xrotation Zrotation
          JOINT RightArm
          {
            OFFSET 0.0000 12.6234 0.0000
            CHANNELS 3 Yrotation Xrotation Zrotation
            JOINT RightForeArm
            {
              OFFSET 0.0000 24.4781 0.0000
              CHANNELS 3 Yrotation Xrotation Zrotation
              JOINT RightHand
              {
                OFFSET -0.0001 26.9540 0.0000
                CHANNELS 3 Yrotation Xrotation Zrotation
                JOINT RightHandIndex1
                {
                  OFFSET 2.4222 7.6360 0.0974
                  CHANNELS 3 Yrotation Xrotation Zrotation
                  JOINT RightHandIndex2
                  {
                    OFFSET 0.0000 4.3321 -0.0001
                    CHANNELS 3 Yrotation Xrotation Zrotation
                    JOINT RightHandIndex3
                    {
                      OFFSET 0.0000 2.6652 0.0000
                      CHANNELS 3 Yrotation Xrotation Zrotation
                      End Site
                      {
                        OFFSET 0.0000 1.3566 0.0000
                      }
                    }
                  }
                }
                JOINT RightHandMiddle1
                {
                  OFFSET 0.5154 7.6952 0.0974
                  CHANNELS 3 Yrotation Xrotation Zrotation
                  JOINT RightHandMiddle2
                  {
                    OFFSET 0.0000 4.4473 -0.0001
                    CHANNELS 3 Yrotation Xrotation Zrotation
                    JOINT RightHandMiddle3
                    {
                      OFFSET 0.0000 2.9333 0.0000
                      CHANNELS 3 Yrotation Xrotation Zrotation
                      End Site
                      {
                        OFFSET 0.0000 1.4991 0.0000
                      }
                    }
                  }
                }
                JOINT RightHandPinky1
                {
                  OFFSET -2.9667 6.6374 0.0974
                  CHANNELS 3 Yrotation Xrotation Zrotation
                  JOINT RightHandPinky2
                  {
                    OFFSET 0.0000 3.3613 -0.0001
                    CHANNELS 3 Yrotation Xrotation Zrotation
                    JOINT RightHandPinky3
                    {
                      OFFSET 0.0000 2.1128 0.0000
                      CHANNELS 3 Yrotation Xrotation Zrotation
                      End Site
                      {
                        OFFSET 0.0000 1.1205 0.0000
                      }
                    }
                  }
                }
                JOINT RightHandRing1
                {
                  OFFSET -1.3624 7.3833 0.0974
                  CHANNELS 3 Yrotation Xrotation Zrotation
                  JOINT RightHandRing2
                  {
                    OFFSET 0.0000 4.1540 -0.0001
                    CHANNELS 3 Yrotation Xrotation Zrotation
                    JOINT RightHandRing3
                    {
                      OFFSET 0.0000 2.6790 0.0000
                      CHANNELS 3 Yrotation Xrotation Zrotation
                      End Site
                      {
                        OFFSET 0.0000 1.3500 0.0000
                      }
                    }
                  }
                }
                JOINT RightHandThumb1
                {
                  OFFSET 2.6352 1.9663 0.0889
                  CHANNELS 3 Yrotation Xrotation Zrotation
                  JOINT RightHandThumb2
                  {
                    OFFSET 0.0000 3.7470 -0.0001
                    CHANNELS 3 Yrotation Xrotation Zrotation
                    JOINT RightHandThumb3
                    {
                      OFFSET 0.0000 2.8440 -0.0001
                      CHANNELS 3 Yrotation Xrotation Zrotation
                      End Site
                      {
                        OFFSET 0.0000 1.7295 0.0000
                      }
                    }
                  }
                }
              }
            }
          }
        }
      }
    }
  }
  JOINT LeftUpLeg
  {
    OFFSET 7.5966 0.0000 0.0000
    CHANNELS 3 Yrotation Xrotation Zrotation
    JOINT LeftLeg
    {
      OFFSET 0.0000 40.5152 0.0000
      CHANNELS 3 Yrotation Xrotation Zrotation
      JOINT LeftFoot
      {
        OFFSET 0.0000 40.6090 0.0000
        CHANNELS 3 Yrotation Xrotation Zrotation
        JOINT LeftToeBase
        {
          OFFSET 0.0000 13.6671 0.0000
          CHANNELS 3 Yrotation Xrotation Zrotation
          End Site
          {
            OFFSET 0.0000 3.5000 0.0000
          }
        }
      }
    }
  }
  JOINT RightUpLeg
  {
    OFFSET -7.5966 0.0000 0.0000
    CHANNELS 3 Yrotation Xrotation Zrotation
    JOINT RightLeg
    {
      OFFSET 0.0000 40.5153 0.0000
      CHANNELS 3 Yrotation Xrotation Zrotation
      JOINT RightFoot
      {
        OFFSET 0.0000 40.6090 0.0000
        CHANNELS 3 Yrotation Xrotation Zrotation
        JOINT RightToeBase
        {
          OFFSET 0.0000 13.6671 0.0000
          CHANNELS 3 Yrotation Xrotation Zrotation
          End Site
          {
            OFFSET 0.0000 3.5000 0.0000
          }
        }
      }
    }
  }
}
MOTION
Frames: 7
Frame Time: 0.033333
-2.0905 88.1409 -11.4469 -15.2226 1.8414 -1.7805 -1.2505 -0.9383 -1.0765 -1.2509 -0.9385 -1.0768 -1.2543 -0.9411 -1.0797 135.5386 82.8521 42.6488 66.7196 41.9617 110.8965 20.4047 14.7719 86.0398 25.9802 -67.6838 21.9922 -11.2628 18.0683 -16.4129 0.0000 7.0650 0.0000 0.0000 4.7091 -0.0008 -34.9877 57.8691 -41.9266 0.0005 79.0062 0.0006 0.0002 53.1535 0.0002 -82.7057 46.7793 -76.7259 -0.0001 50.6995 0.0004 -0.0001 33.9251 -0.0006 -70.8231 54.0927 -72.9423 0.0001 66.9079 0.0001 0.0000 44.8941 -0.0001 41.3999 23.3957 49.9872 4.9914 -23.0131 -18.7098 -0.0382 -2.0921 2.0935 5.5209 0.1451 3.3036 5.5209 0.1451 3.3036 123.3064 81.9375 -137.6131 -35.7060 65.7041 -35.5822 -30.2756 18.9738 -77.0028 -7.4910 15.3790 -19.4142 2.6035 11.6749 36.3361 0.0000 44.4718 -0.0001 0.0000 29.7310 0.0002 5.2068 20.4767 44.8139 -0.0001 63.6716 -0.0002 0.0000 42.6968 -0.0001 52.4881 20.6110 76.7984 0.0000 31.0871 0.0001 -0.0001 20.7531 0.0002 24.6765 16.3916 60.8786 0.0000 48.0067 -0.0001 0.0000 32.1091 -0.0001 -42.3944 20.7368 -27.3113 7.3634 14.8827 31.8225 2.2285 15.5764 16.1863 5.9279 5.0819 -179.3201 0.0000 -0.0163 0.0828 -3.1636 70.7712 12.6954 0.0000 25.9505 0.0000 7.7742 -4.7848 -178.5319 -0.0187 -13.2108 -0.0811 -7.5497 71.3668 -12.6626 0.0000 27.1941 -0.0001 
-2.0842 88.1395 -11.4255 -15.1975 1.8552 -1.7854 -1.2976 -0.9453 -1.0804 -1.2980 -0.9456 -1.0807 -1.3015 -0.9482 -1.0836 134.9764 82.8153 42.3643 65.9051 40.8971 110.9807 20.5591 15.8327 84.9227 18.8252 -66.5421 28.5375 -11.0784 18.3904 -16.4427 0.0000 7.4841 0.0000 0.0000 4.9885 -0.0008 -35.2687 57.7526 -42.2394 0.0006 79.1203 0.0007 0.0002 53.2317 0.0003 -82.8708 46.5934 -76.8544 -0.0001 50.6583 0.0004 -0.0001 33.8974 -0.0006 -70.9463 53.8779 -73.0597 0.0001 66.9505 0.0001 0.0001 44.9231 -0.0001 41.4201 23.3751 50.0018 4.9937 -23.0067 -18.7898 -0.0372 -2.0640 2.0653 5.6090 0.1494 3.3178 5.6090 0.1494 3.3178 123.1134 81.8671 -137.8629 -35.6876 65.6158 -35.6142 -30.2951 19.0017 -77.0077 -7.4228 15.3595 -19.4225 2.6169 11.6904 36.3346 -0.0001 44.3688 -0.0002 -0.0001 29.6618 0.0001 5.2227 20.4647 44.8267 -0.0001 63.6287 -0.0002 0.0000 42.6676 -0.0001 52.4898 20.6197 76.8089 0.0000 31.0588 0.0001 0.0000 20.7343 0.0002 24.6783 16.3452 60.8913 0.0000 48.0654 -0.0001 0.0000 32.1487 -0.0001 -42.3968 20.7276 -27.3210 7.3833 14.9136 31.8639 2.2355 15.5998 16.2125 5.8977 4.9945 -179.3230 0.0002 -0.1874 0.0827 -3.1689 70.8682 12.6942 0.0000 25.9505 0.0000 7.7497 -4.7689 -178.5325 -0.0192 -13.1873 -0.0779 -7.5397 71.3783 -12.6694 0.0000 27.1859 -0.0001 
-2.0755 88.1376 -11.4025 -15.1806 1.8779 -1.7948 -1.3502 -0.9483 -1.0865 -1.3506 -0.9486 -1.0868 -1.3542 -0.9512 -1.0897 134.0504 82.7790 41.7031 65.2445 39.7885 111.0722 20.6092 16.3739 83.8255 10.8030 -64.0679 34.3191 -10.7866 18.7457 -16.5053 0.0000 7.7994 0.0000 0.0000 5.1988 -0.0008 -35.5316 57.5838 -42.5900 0.0006 79.2520 0.0007 0.0002 53.3220 0.0003 -83.0261 46.3777 -76.9824 -0.0001 50.5966 0.0004 -0.0001 33.8557 -0.0006 -71.1265 53.6296 -73.2518 0.0001 66.9339 0.0001 0.0001 44.9118 -0.0001 41.4385 23.3453 49.9668 5.0059 -23.0200 -18.8964 -0.0362 -2.0355 2.0367 5.7031 0.1353 3.3285 5.7031 0.1353 3.3285 122.7528 81.7527 -138.2434 -35.7039 65.4953 -35.7156 -30.2862 19.0035 -76.9794 -7.3464 15.3590 -19.4038 2.5072 11.7265 36.3056 0.0000 44.5099 -0.0001 0.0000 29.7566 0.0002 5.2341 20.4562 44.8317 -0.0002 63.6078 -0.0003 -0.0001 42.6534 -0.0001 52.4867 20.6271 76.8026 0.0000 31.0475 0.0001 0.0000 20.7267 0.0002 24.6693 16.3552 60.8856 0.0000 48.0722 -0.0001 0.0000 32.1533 0.0000 -42.4108 20.7223 -27.3278 7.3849 14.9064 31.8699 2.2355 15.5999 16.2126 5.8766 4.7799 -179.3240 0.0006 -0.5967 0.0827 -3.1972 71.0807 12.6657 0.0000 25.9506 0.0000 7.7064 -4.7633 -178.5294 -0.0176 -13.1667 -0.0807 -7.5676 71.3895 -12.6937 0.0000 27.1751 -0.0001 
-2.0652 88.1349 -11.3795 -15.1832 1.9051 -1.7978 -1.4046 -0.9545 -1.0928 -1.4050 -0.9547 -1.0932 -1.4088 -0.9573 -1.0961 133.4992 82.7122 41.3715 64.5575 38.6545 111.1070 20.6231 16.5447 82.8668 4.6084 -62.4046 38.2005 -10.4597 19.3426 -16.5280 0.0000 8.2853 0.0000 0.0000 5.5228 -0.0008 -35.8418 57.5069 -42.9342 0.0005 79.3088 0.0006 0.0002 53.3610 0.0002 -83.2886 46.1835 -77.1727 -0.0001 50.4651 0.0004 -0.0001 33.7671 -0.0006 -71.3855 53.4303 -73.4733 0.0001 66.8670 0.0001 0.0001 44.8663 -0.0001 41.4804 23.3149 49.9832 5.0339 -23.0641 -19.0458 -0.0351 -2.0060 2.0072 5.7966 0.1241 3.3307 5.7966 0.1241 3.3307 122.5487 81.6745 -138.4869 -35.6457 65.4846 -35.6899 -30.3224 19.0099 -76.9704 -7.4116 15.4369 -19.3889 2.4743 11.7487 36.2972 -0.0002 44.5368 -0.0003 -0.0001 29.7747 0.0001 5.2278 20.4648 44.8299 -0.0002 63.5946 -0.0002 0.0000 42.6445 -0.0001 52.4751 20.6494 76.7935 0.0000 31.0314 0.0001 -0.0001 20.7159 0.0002 24.6474 16.3812 60.8684 0.0000 48.1008 0.0000 0.0000 32.1725 0.0000 -42.4347 20.7133 -27.3320 7.3788 14.9001 31.8564 2.2336 15.5933 16.2053 5.8659 4.7683 -179.3341 0.0006 -0.5960 0.0827 -3.2219 71.0992 12.6543 0.0000 25.9508 0.0000 7.6869 -4.7680 -178.5365 -0.0180 -13.1553 -0.0811 -7.5717 71.4083 -12.6960 0.0000 27.1647 -0.0001 
-2.0541 88.1313 -11.3563 -15.2194 1.9281 -1.8060 -1.4454 -0.9574 -1.0922 -1.4459 -0.9576 -1.0925 -1.4498 -0.9602 -1.0954 133.0583 82.6594 41.1038 64.0259 37.7324 111.1229 21.0039 17.0070 82.0814 0.6215 -60.2646 41.1104 -10.3604 20.2583 -16.6563 0.0000 8.9339 0.0000 0.0000 5.9553 -0.0008 -36.1167 57.4759 -43.1875 0.0006 79.3930 0.0007 0.0002 53.4187 0.0002 -83.5044 46.0381 -77.2783 -0.0001 50.3931 0.0004 -0.0001 33.7185 -0.0006 -71.5899 53.2852 -73.6356 0.0001 66.8562 0.0001 0.0000 44.8589 -0.0001 41.5016 23.2434 49.9794 5.0358 -23.0498 -19.1812 -0.0334 -1.9569 1.9579 5.8754 0.1189 3.3198 5.8754 0.1189 3.3198 122.3210 81.6279 -138.7365 -35.5662 65.4743 -35.6435 -30.3610 19.0252 -76.9761 -7.4846 15.5705 -19.3710 2.4465 11.7779 36.3091 -0.0002 44.5449 -0.0002 -0.0001 29.7802 0.0001 5.2220 20.4732 44.8298 -0.0001 63.5791 -0.0002 0.0000 42.6340 -0.0001 52.4627 20.6781 76.7917 0.0000 31.0106 0.0001 -0.0001 20.7020 0.0002 24.6628 16.3757 60.8819 0.0000 48.0721 -0.0001 0.0000 32.1532 -0.0001 -42.4260 20.7364 -27.3169 7.3378 14.8309 31.7724 2.2187 15.5440 16.1499 5.8800 4.6751 -179.3413 0.0008 -0.7703 0.0827 -3.2645 71.2064 12.6336 0.0000 25.9509 0.0000 7.7076 -4.7753 -178.5413 -0.0162 -13.1479 -0.0793 -7.5757 71.4299 -12.7021 0.0000 27.1457 -0.0001 
-2.0423 88.1271 -11.3325 -15.2769 1.9517 -1.8186 -1.4747 -0.9606 -1.0871 -1.4752 -0.9609 -1.0875 -1.4791 -0.9635 -1.0904 132.4666 82.6129 40.6564 63.5452 36.9426 111.1323 21.5781 17.4159 81.4230 -3.6148 -56.5118 43.6783 -10.3313 21.1614 -16.8962 0.0000 9.0889 0.0000 0.0000 6.0587 -0.0008 -36.3496 57.4067 -43.4687 0.0006 79.4946 0.0008 0.0002 53.4883 0.0003 -83.7062 45.8816 -77.4393 -0.0002 50.3181 0.0004 -0.0001 33.6680 -0.0006 -71.8082 53.1387 -73.8004 0.0001 66.8237 0.0001 0.0000 44.8368 -0.0001 41.5091 23.1426 49.9266 5.0452 -23.0467 -19.3672 -0.0314 -1.8961 1.8971 5.9411 0.1223 3.3119 5.9411 0.1223 3.3119 122.0802 81.5829 -139.0020 -35.4811 65.4414 -35.5975 -30.3564 19.0788 -76.9763 -7.5815 15.7177 -19.3488 2.4466 11.7522 36.3286 -0.0002 44.6907 -0.0003 -0.0001 29.8782 0.0001 5.2253 20.4697 44.8328 -0.0002 63.5595 -0.0002 0.0000 42.6208 -0.0001 52.4502 20.6849 76.7950 0.0000 31.0091 0.0001 0.0000 20.7010 0.0002 24.6299 16.3642 60.8804 0.0000 48.1843 -0.0001 0.0000 32.2287 -0.0001 -42.4234 20.7363 -27.3169 7.3324 14.8208 31.7614 2.2167 15.5373 16.1424 5.9090 4.5573 -179.3480 0.0011 -0.9950 0.0825 -3.1894 71.3392 12.7450 0.0000 25.9504 0.0000 7.7333 -4.7909 -178.5421 -0.0165 -13.1506 -0.0804 -7.5879 71.4478 -12.7062 0.0000 27.1402 -0.0001 
-2.0304 88.1229 -11.3098 -15.3386 1.9785 -1.8297 -1.5022 -0.9665 -1.0837 -1.5028 -0.9668 -1.0840 -1.5067 -0.9694 -1.0869 131.8946 82.5578 40.1979 63.0403 36.1092 111.1466 22.0270 17.5522 80.8437 -7.2488 -52.7261 45.3831 -10.1859 22.0050 -17.1049 0.0000 8.8834 0.0000 0.0000 5.9217 -0.0008 -36.5712 57.3347 -43.7674 0.0005 79.5745 0.0006 0.0002 53.5431 0.0003 -83.9146 45.7239 -77.6023 -0.0001 50.2298 0.0004 -0.0001 33.6085 -0.0006 -72.0131 52.9791 -74.0077 0.0001 66.7893 0.0001 0.0000 44.8135 -0.0001 41.5513 23.0503 49.9115 5.0939 -23.1190 -19.6727 -0.0292 -1.8283 1.8292 6.0061 0.1479 3.3255 6.0061 0.1479 3.3255 121.8651 81.5373 -139.2552 -35.4104 65.3913 -35.5581 -30.3543 19.1168 -76.9830 -7.6613 15.8331 -19.3414 2.4574 11.7641 36.3362 -0.0001 44.7212 -0.0002 -0.0001 29.8987 0.0001 5.2339 20.4626 44.8395 -0.0001 63.5615 -0.0002 0.0000 42.6221 -0.0001 52.4458 20.6831 76.8027 0.0000 31.0346 0.0001 -0.0001 20.7180 0.0002 24.6157 16.3742 60.8795 0.0000 48.2421 -0.0001 0.0000 32.2677 -0.0001 -42.4114 20.7335 -27.3168 7.3399 14.8571 31.7702 2.2207 15.5507 16.1574 5.9460 4.5135 -179.3553 0.0013 -1.0662 0.0824 -3.2635 71.4147 12.7035 0.0000 25.9508 0.0000 7.7631 -4.8149 -178.5450 -0.0169 -13.1614 -0.0818 -7.5830 71.4694 -12.6920 0.0000 27.1329 -0.0001 
